<?xml version="1.0" encoding="UTF-8" standalone="no"?>
<svg
   xmlns:dc="http://purl.org/dc/elements/1.1/"
   xmlns:cc="http://creativecommons.org/ns#"
   xmlns:rdf="http://www.w3.org/1999/02/22-rdf-syntax-ns#"
   xmlns:svg="http://www.w3.org/2000/svg"
   xmlns="http://www.w3.org/2000/svg"
   xmlns:sodipodi="http://sodipodi.sourceforge.net/DTD/sodipodi-0.dtd"
   xmlns:inkscape="http://www.inkscape.org/namespaces/inkscape"
   version="1.1"
   id="svg2"
   xml:space="preserve"
   width="301.44934"
   height="160.38667"
   viewBox="0 0 301.44934 160.38667"
   sodipodi:docname="logoInkSkape01i.svg"
   inkscape:export-filename="/run/media/nian/Disco_D/Drive/ADSI/DiseñoWeb/logoInkSkape01i.png"
   inkscape:export-xdpi="207.05095"
   inkscape:export-ydpi="207.05095"
   inkscape:version="1.0.2 (e86c870879, 2021-01-15)"><metadata
     id="metadata8"><rdf:RDF><cc:Work
         rdf:about=""><dc:format>image/svg+xml</dc:format><dc:type
           rdf:resource="http://purl.org/dc/dcmitype/StillImage" /><dc:title></dc:title></cc:Work></rdf:RDF></metadata><defs
     id="defs6"><clipPath
       clipPathUnits="userSpaceOnUse"
       id="clipPath18"><path
         d="M 0,120.29 H 226.087 V 0 H 0 Z"
         id="path16" /></clipPath></defs><sodipodi:namedview
     pagecolor="#ffffff"
     bordercolor="#666666"
     borderopacity="1"
     objecttolerance="10"
     gridtolerance="10"
     guidetolerance="10"
     inkscape:pageopacity="0"
     inkscape:pageshadow="2"
     inkscape:window-width="1366"
     inkscape:window-height="739"
     id="namedview4"
     showgrid="false"
     inkscape:zoom="3.0364119"
     inkscape:cx="175.55932"
     inkscape:cy="87.109394"
     inkscape:window-x="0"
     inkscape:window-y="0"
     inkscape:window-maximized="1"
     inkscape:current-layer="g10" /><g
     id="g10"
     inkscape:groupmode="layer"
     inkscape:label="logo002"
     transform="matrix(1.3333333,0,0,-1.3333333,0,160.38667)"><g
       id="g20"
       transform="translate(100.9189,79.5932)"
       inkscape:export-xdpi="207"
       inkscape:export-ydpi="207"><path
         d="m 0,0 v 0.029 h -59.947 v -7.208 h 9.36 v -26.643 h 7.639 v 6.842 19.801 H -0.944 V -7.196 C 4.042,-7.489 8,-11.801 8,-17.079 8,-22.358 4.042,-26.67 -0.944,-26.963 v -0.017 h -39.099 v -6.842 H 0 v 0.029 c 8.898,0.501 15.961,7.873 15.961,16.897 C 15.961,-7.873 8.898,-0.5 0,0 Z"
         style="fill:none;stroke:#e52822;stroke-width:0.75;stroke-linecap:butt;stroke-linejoin:miter;stroke-miterlimit:10;stroke-dasharray:none;stroke-opacity:1"
         id="path22" /></g><g
       id="g24"
       transform="translate(100.2036,58.4076)"
       inkscape:export-xdpi="207"
       inkscape:export-ydpi="207"><path
         d="m 0,0 h -34.32 c -0.374,-0.001 -0.677,-0.455 -0.677,-1.016 0,-0.561 0.303,-1.015 0.677,-1.015 H 0 c 0.374,0 0.677,0.454 0.677,1.015 C 0.677,-0.455 0.374,0 0,0 Z"
         style="fill:none;stroke:#e52822;stroke-width:0.75;stroke-linecap:butt;stroke-linejoin:miter;stroke-miterlimit:10;stroke-dasharray:none;stroke-opacity:1"
         id="path26" /></g><g
       id="g28"
       transform="translate(103.6391,63.5409)"
       inkscape:export-xdpi="207"
       inkscape:export-ydpi="207"><path
         d="m 0,0 v 0 h -37.719 c -0.394,0 -0.714,-0.455 -0.714,-1.016 0,-0.561 0.32,-1.015 0.714,-1.015 H 0 c 0.394,0 0.714,0.454 0.714,1.015 C 0.714,-0.455 0.394,0 0,0 Z"
         style="fill:none;stroke:#e52822;stroke-width:0.75;stroke-linecap:butt;stroke-linejoin:miter;stroke-miterlimit:10;stroke-dasharray:none;stroke-opacity:1"
         id="path30" /></g><g
       id="g32"
       transform="translate(100.2036,68.6747)"
       inkscape:export-xdpi="207"
       inkscape:export-ydpi="207"><path
         d="m 0,0 h -34.32 c -0.374,0 -0.677,-0.455 -0.677,-1.016 0,-0.561 0.303,-1.015 0.677,-1.015 H 0 c 0.374,0 0.677,0.454 0.677,1.015 C 0.677,-0.455 0.374,0 0,0 Z"
         style="fill:none;stroke:#e52822;stroke-width:0.75;stroke-linecap:butt;stroke-linejoin:miter;stroke-miterlimit:10;stroke-dasharray:none;stroke-opacity:1"
         id="path34" /></g><g
       id="g36"
       transform="translate(127.0888,77.9926)"
       style="mix-blend-mode:normal;fill:#ffffff;fill-opacity:1;stroke:#ffffff;stroke-opacity:1;opacity:1"
       inkscape:export-xdpi="207"
       inkscape:export-ydpi="207"><path
         d="m 0,0 h -2.428 v 2.112 h 7.18 V 0 H 2.323 V -12.671 H 0 Z"
         style="fill:#ffffff;fill-opacity:1;stroke:#ffffff;stroke-width:0.75;stroke-linecap:butt;stroke-linejoin:miter;stroke-miterlimit:10;stroke-dasharray:none;stroke-opacity:1"
         id="path38" /></g><g
       id="g40"
       transform="translate(136.3183,70.2206)"
       style="mix-blend-mode:normal;fill:#ffffff;fill-opacity:1;stroke:#ffffff;stroke-opacity:1;opacity:1"
       inkscape:export-xdpi="207"
       inkscape:export-ydpi="207"><path
         d="M 0,0 -1.034,7.308 H -1.077 L -2.091,0 Z M -2.534,9.884 H 0.612 L 3.021,-4.899 H 0.697 l -0.422,2.935 v -0.042 h -2.64 l -0.422,-2.893 h -2.154 z"
         style="fill:#ffffff;fill-opacity:1;stroke:#ffffff;stroke-width:0.75;stroke-linecap:butt;stroke-linejoin:miter;stroke-miterlimit:10;stroke-dasharray:none;stroke-opacity:1"
         id="path42" /></g><g
       id="g44"
       transform="translate(144.1122,67.433)"
       style="mix-blend-mode:normal;fill:#ffffff;fill-opacity:1;stroke:#ffffff;stroke-opacity:1;opacity:1"
       inkscape:export-xdpi="207"
       inkscape:export-ydpi="207"><path
         d="M 0,0 C 0.408,0 0.711,0.109 0.907,0.328 1.104,0.545 1.203,0.922 1.203,1.457 V 2.746 C 1.203,3.421 1.088,3.889 0.855,4.15 0.623,4.41 0.239,4.541 -0.296,4.541 H -1.331 V 0 Z m -0.423,6.652 c 0.465,0 0.814,0.12 1.046,0.36 0.232,0.239 0.348,0.64 0.348,1.203 v 0.824 c 0,0.535 -0.095,0.922 -0.284,1.162 C 0.496,10.44 0.196,10.56 -0.212,10.56 H -1.331 V 6.652 Z m -3.231,6.02 h 3.506 c 1.196,0 2.07,-0.279 2.619,-0.835 C 3.02,11.281 3.295,10.426 3.295,9.271 V 8.68 C 3.295,7.92 3.171,7.3 2.925,6.822 2.679,6.343 2.302,5.998 1.795,5.787 V 5.745 C 2.949,5.35 3.526,4.322 3.526,2.661 V 1.394 C 3.526,0.253 3.228,-0.616 2.629,-1.214 2.03,-1.813 1.153,-2.112 0,-2.112 h -3.654 z"
         style="fill:#ffffff;fill-opacity:1;stroke:#ffffff;stroke-width:0.75;stroke-linecap:butt;stroke-linejoin:miter;stroke-miterlimit:10;stroke-dasharray:none;stroke-opacity:1"
         id="path46" /></g><g
       id="g48"
       transform="translate(148.9902,80.1049)"
       style="mix-blend-mode:normal;fill:#ffffff;fill-opacity:1;stroke:#ffffff;stroke-opacity:1;opacity:1"
       inkscape:export-xdpi="207"
       inkscape:export-ydpi="207"><path
         d="m 0,0 h 2.323 v -12.672 h 3.823 v -2.112 H 0 Z"
         style="fill:#ffffff;fill-opacity:1;stroke:#ffffff;stroke-width:0.75;stroke-linecap:butt;stroke-linejoin:miter;stroke-miterlimit:10;stroke-dasharray:none;stroke-opacity:1"
         id="path50" /></g><g
       id="g52"
       transform="translate(156.2548,80.1049)"
       style="mix-blend-mode:normal;fill:#ffffff;fill-opacity:1;stroke:#ffffff;stroke-opacity:1;opacity:1"
       inkscape:export-xdpi="207"
       inkscape:export-ydpi="207"><path
         d="M 0,0 H 6.336 V -2.112 H 2.323 V -6.02 h 3.19 v -2.111 h -3.19 v -4.541 h 4.013 v -2.112 H 0 Z"
         style="fill:#ffffff;fill-opacity:1;stroke:#ffffff;stroke-width:0.75;stroke-linecap:butt;stroke-linejoin:miter;stroke-miterlimit:10;stroke-dasharray:none;stroke-opacity:1"
         id="path54" /></g><g
       id="g56"
       transform="translate(167.0888,73.769)"
       style="mix-blend-mode:normal;fill:#ffffff;fill-opacity:1;stroke:#ffffff;stroke-opacity:1;opacity:1"
       inkscape:export-xdpi="207"
       inkscape:export-ydpi="207"><path
         d="M 0,0 C 0.465,0 0.813,0.119 1.046,0.359 1.278,0.598 1.395,1 1.395,1.562 V 2.703 C 1.395,3.238 1.3,3.625 1.109,3.865 0.919,4.104 0.62,4.224 0.212,4.224 H -0.845 V 0 Z m -3.168,6.336 h 3.443 c 1.197,0 2.07,-0.279 2.619,-0.835 C 3.443,4.945 3.718,4.09 3.718,2.936 V 2.027 c 0,-1.534 -0.507,-2.506 -1.521,-2.914 V -0.929 C 2.76,-1.098 3.157,-1.443 3.39,-1.964 3.622,-2.485 3.738,-3.182 3.738,-4.055 v -2.598 c 0,-0.422 0.015,-0.764 0.043,-1.024 0.028,-0.26 0.098,-0.518 0.211,-0.771 H 1.627 c -0.085,0.24 -0.142,0.465 -0.169,0.676 -0.029,0.211 -0.043,0.591 -0.043,1.141 v 2.703 c 0,0.676 -0.108,1.147 -0.327,1.415 -0.219,0.267 -0.595,0.401 -1.13,0.401 h -0.803 v -6.336 h -2.323 z"
         style="fill:#ffffff;fill-opacity:1;stroke:#ffffff;stroke-width:0.75;stroke-linecap:butt;stroke-linejoin:miter;stroke-miterlimit:10;stroke-dasharray:none;stroke-opacity:1"
         id="path58" /></g><g
       id="g60"
       transform="translate(176.9941,68.6791)"
       style="mix-blend-mode:normal;fill:#ffffff;fill-opacity:1;stroke:#ffffff;stroke-opacity:1;opacity:1"
       inkscape:export-xdpi="207"
       inkscape:export-ydpi="207"><path
         d="m 0,0 v 8.067 c 0,0.972 -0.4,1.457 -1.203,1.457 -0.803,0 -1.204,-0.485 -1.204,-1.457 V 0 c 0,-0.972 0.401,-1.458 1.204,-1.458 C -0.4,-1.458 0,-0.972 0,0 Z M -3.822,-2.598 C -4.428,-1.95 -4.73,-1.035 -4.73,0.148 V 7.92 c 0,1.183 0.302,2.098 0.908,2.745 0.605,0.648 1.478,0.972 2.619,0.972 1.14,0 2.013,-0.324 2.618,-0.972 C 2.021,10.018 2.324,9.103 2.324,7.92 V 0.148 c 0,-1.183 -0.303,-2.098 -0.909,-2.746 -0.605,-0.648 -1.478,-0.971 -2.618,-0.971 -1.141,0 -2.014,0.323 -2.619,0.971 z"
         style="fill:#ffffff;fill-opacity:1;stroke:#ffffff;stroke-width:0.75;stroke-linecap:butt;stroke-linejoin:miter;stroke-miterlimit:10;stroke-dasharray:none;stroke-opacity:1"
         id="path62" /></g><g
       id="g64"
       transform="translate(135.2421,48.0941)"
       style="mix-blend-mode:normal;fill:#ffffff;fill-opacity:1;stroke:#ffffff;stroke-opacity:1;opacity:1"
       inkscape:export-xdpi="207"
       inkscape:export-ydpi="207"><path
         d="M 0,0 C 0.38,0 0.672,0.112 0.876,0.338 1.08,0.563 1.183,0.929 1.183,1.437 V 9.124 C 1.183,9.63 1.08,9.996 0.876,10.222 0.672,10.447 0.38,10.56 0,10.56 H -1.184 V 0 Z m -3.506,12.672 h 3.548 c 1.154,0 2.02,-0.31 2.598,-0.93 0.577,-0.619 0.865,-1.527 0.865,-2.723 V 1.542 C 3.505,0.345 3.217,-0.563 2.64,-1.183 2.062,-1.803 1.196,-2.112 0.042,-2.112 h -3.548 z"
         style="fill:#ffffff;fill-opacity:1;stroke:#ffffff;stroke-width:0.75;stroke-linecap:butt;stroke-linejoin:miter;stroke-miterlimit:10;stroke-dasharray:none;stroke-opacity:1"
         id="path66" /></g><path
       d="m 140.31,60.766 h 2.322 V 45.982 h -2.322 z"
       style="mix-blend-mode:normal;fill:#ffffff;fill-opacity:1;stroke:#ffffff;stroke-width:0.75;stroke-linecap:butt;stroke-linejoin:miter;stroke-miterlimit:10;stroke-dasharray:none;stroke-opacity:1;opacity:1"
       id="path68"
       inkscape:export-xdpi="207"
       inkscape:export-ydpi="207" /><g
       id="g70"
       transform="translate(145.0829,46.7318)"
       style="mix-blend-mode:normal;fill:#ffffff;fill-opacity:1;stroke:#ffffff;stroke-opacity:1;opacity:1"
       inkscape:export-xdpi="207"
       inkscape:export-ydpi="207"><path
         d="m 0,0 c -0.591,0.641 -0.887,1.56 -0.887,2.756 v 7.772 c 0,1.197 0.296,2.116 0.887,2.756 0.592,0.641 1.45,0.961 2.577,0.961 1.126,0 1.985,-0.32 2.576,-0.961 0.592,-0.64 0.887,-1.559 0.887,-2.756 V 9.261 H 3.844 v 1.415 c 0,0.971 -0.401,1.457 -1.203,1.457 -0.803,0 -1.204,-0.486 -1.204,-1.457 V 2.587 c 0,-0.957 0.401,-1.436 1.204,-1.436 0.802,0 1.203,0.479 1.203,1.436 V 5.48 H 2.683 V 7.593 H 6.04 V 2.756 C 6.04,1.56 5.745,0.641 5.153,0 4.562,-0.641 3.703,-0.961 2.577,-0.961 1.45,-0.961 0.592,-0.641 0,0 Z"
         style="fill:#ffffff;fill-opacity:1;stroke:#ffffff;stroke-width:0.75;stroke-linecap:butt;stroke-linejoin:miter;stroke-miterlimit:10;stroke-dasharray:none;stroke-opacity:1"
         id="path72" /></g><path
       d="m 152.622,60.766 h 2.323 V 45.982 h -2.323 z"
       style="mix-blend-mode:normal;fill:#ffffff;fill-opacity:1;stroke:#ffffff;stroke-width:0.75;stroke-linecap:butt;stroke-linejoin:miter;stroke-miterlimit:10;stroke-dasharray:none;stroke-opacity:1;opacity:1"
       id="path74"
       inkscape:export-xdpi="207"
       inkscape:export-ydpi="207" /><g
       id="g76"
       transform="translate(158.4941,58.6537)"
       style="mix-blend-mode:normal;fill:#ffffff;fill-opacity:1;stroke:#ffffff;stroke-opacity:1;opacity:1"
       inkscape:export-xdpi="207"
       inkscape:export-ydpi="207"><path
         d="M 0,0 H -2.429 V 2.112 H 4.752 V 0 H 2.323 V -12.672 H 0 Z"
         style="fill:#ffffff;fill-opacity:1;stroke:#ffffff;stroke-width:0.75;stroke-linecap:butt;stroke-linejoin:miter;stroke-miterlimit:10;stroke-dasharray:none;stroke-opacity:1"
         id="path78" /></g><g
       id="g80"
       transform="translate(167.7236,50.8822)"
       style="mix-blend-mode:normal;fill:#ffffff;fill-opacity:1;stroke:#ffffff;stroke-opacity:1;opacity:1"
       inkscape:export-xdpi="207"
       inkscape:export-ydpi="207"><path
         d="M 0,0 -1.035,7.307 H -1.077 L -2.091,0 Z M -2.535,9.884 H 0.612 L 3.02,-4.9 H 0.696 l -0.422,2.935 v -0.042 h -2.64 L -2.788,-4.9 h -2.154 z"
         style="fill:#ffffff;fill-opacity:1;stroke:#ffffff;stroke-width:0.75;stroke-linecap:butt;stroke-linejoin:miter;stroke-miterlimit:10;stroke-dasharray:none;stroke-opacity:1"
         id="path82" /></g><g
       id="g84"
       transform="translate(171.8622,60.766)"
       style="mix-blend-mode:normal;fill:#ffffff;fill-opacity:1;stroke:#ffffff;stroke-opacity:1;opacity:1"
       inkscape:export-xdpi="207"
       inkscape:export-ydpi="207"><path
         d="m 0,0 h 2.323 v -12.672 h 3.823 v -2.112 H 0 Z"
         style="fill:#ffffff;fill-opacity:1;stroke:#ffffff;stroke-width:0.75;stroke-linecap:butt;stroke-linejoin:miter;stroke-miterlimit:10;stroke-dasharray:none;stroke-opacity:1"
         id="path86" /></g></g></svg>
