<svg id="Capa_1" data-name="Capa 1" xmlns="http://www.w3.org/2000/svg" viewBox="0 0 16 16"><defs><style>.cls-1{fill:#e42822;stroke:#e42822;stroke-miterlimit:10;stroke-width:0.39px;}</style></defs><title>faviconMesa de trabajo 1</title><path class="cls-1" d="M12.35,4H.5V5.57H2.35v5.8H3.86V5.57h8.3a2.07,2.07,0,0,1,1.77,2.16,2.06,2.06,0,0,1-1.77,2.15H4.43v1.49h7.92A3.56,3.56,0,0,0,15.5,7.69,3.55,3.55,0,0,0,12.35,4Z"/><path class="cls-1" d="M12.2,8.62H5.42c-.07,0-.13.1-.13.22s.06.22.13.22H12.2c.08,0,.14-.1.14-.22S12.28,8.62,12.2,8.62Z"/><path class="cls-1" d="M12.88,7.5H5.43c-.08,0-.14.1-.14.22s.06.22.14.22h7.45c.08,0,.14-.09.14-.22S13,7.5,12.88,7.5Z"/><path class="cls-1" d="M12.2,6.38H5.42c-.07,0-.13.1-.13.23s.06.22.13.22H12.2c.08,0,.14-.1.14-.22S12.28,6.38,12.2,6.38Z"/></svg>